<svg width="36" height="37" viewBox="0 0 36 37" fill="none" xmlns="http://www.w3.org/2000/svg">
<path d="M10.8446 19.1422V13.98L0 24.8086L2.56206 27.42L10.8446 19.1422ZM35.5559 15.9158C34.7524 11.8828 31.7153 8.85806 31.3666 8.50013L23.9128 0.938232L19.6528 5.18803L19.3495 5.49049V10.6528L23.8976 6.11562L28.1374 10.4158L28.7843 11.0712L28.8297 11.1165C28.8297 11.1165 29.1128 11.3938 29.5019 11.8576C30.6954 13.2258 31.5428 14.8594 31.973 16.6216C32.5794 19.6464 32.8826 23.2105 29.5019 27.5359V32.8696C29.8203 32.5923 30.0072 32.3957 30.0931 32.3251C33.1252 29.3609 34.9393 26.3664 35.6519 23.1652C36.1449 20.7704 36.1139 18.2976 35.5609 15.9158H35.5559ZM12.9772 31.8513L12.866 31.7958H12.8104C12.4801 31.6237 12.1656 31.4229 11.8705 31.1959C11.5925 30.9993 11.254 30.7371 10.8598 30.3994C10.2433 29.8952 9.47512 29.2096 8.54024 28.2972L6.44312 26.1597L3.85576 28.7408L5.94283 30.8632V30.8934C9.17197 34.0392 10.8295 34.9264 11.441 35.1835C13.3772 36.1349 15.4754 36.7147 17.6263 36.8925C18.6147 36.9695 19.6083 36.9492 20.5927 36.832L20.8302 36.8068V33.1065C18.147 33.5305 15.3981 33.0908 12.9822 31.8513H12.9772Z" fill="black"/>
<path d="M17.5252 7.31531V29.3557H12.679V12.1549L13.1641 11.6709L13.4269 11.4088L14.8924 9.94685L15.8828 8.95875L16.2062 8.63612L17.2017 7.64299L17.5252 7.31531Z" fill="black"/>
<path d="M27.6724 12.2408V34.2308L27.6118 34.2762C27.3894 34.4174 27.1519 34.5636 26.8992 34.7047C26.8184 34.7551 26.7325 34.8005 26.6465 34.8459C26.4242 34.9719 26.1867 35.0979 25.9441 35.2189C25.7015 35.3399 25.4842 35.4407 25.2417 35.5466L24.8424 35.718L24.2967 35.9297L23.852 36.086C23.5488 36.1868 23.2355 36.2826 22.9121 36.3683L22.6746 36.4288V12.2408H27.6724Z" fill="black"/>
<path d="M22.6746 18.0531H17.5251V23.0439H22.6746V18.0531Z" fill="black"/>
</svg>
