<svg width="44" height="53" viewBox="0 0 44 53" fill="none" xmlns="http://www.w3.org/2000/svg">
<g clip-path="url(#clip0_1_1708)">
<ellipse cx="6.30849" cy="6.79821" rx="6.30849" ry="6.79821" transform="matrix(-0.877234 -0.480064 -0.480064 0.877234 46.1372 4.58948)" fill="#49B236"/>
<ellipse cx="9.93199" cy="7.34859" rx="6.30849" ry="6.79821" transform="rotate(-28.6896 9.93199 7.34859)" fill="#49B236"/>
<path d="M5.59691 34.7253C9.50831 35.8823 15.1942 32.151 17.5483 30.1407C17.6418 29.8035 17.7364 28.9582 17.3669 28.2748C16.905 27.4205 7.14273 27.7097 4.91575 28.1816C2.68876 28.6536 0.707672 33.2789 5.59691 34.7253Z" fill="#4B9B3A"/>
<path d="M14.087 51.9314C12.955 51.4687 11.8529 45.3019 12.0763 42.2318L22.9488 43.9671C23.1722 46.4587 23.1871 51.5399 22.6509 51.9314C21.9807 52.4208 15.5019 52.5098 14.087 51.9314Z" fill="#4B9B3A"/>
<path d="M13.2372 45.1009C9.85334 42.8507 14.4276 28.8137 17.7328 27.0457C21.0379 25.2777 26.4137 25.5456 28.7745 27.0457C31.1354 28.5459 36.9695 42.7971 33.5856 45.1009C30.2017 47.4046 16.6211 47.3511 13.2372 45.1009Z" fill="#49B236"/>
<path d="M32.5771 51.9314C33.709 51.4687 34.8112 45.3019 34.5878 42.2318L23.7152 43.9671C23.4918 46.4587 23.4769 51.5399 24.0131 51.9314C24.6833 52.4208 31.1622 52.5098 32.5771 51.9314Z" fill="#49B236"/>
<path d="M33.8829 40.3854C30.2505 38.5299 28.699 31.9083 28.3773 28.8294C28.5418 28.5206 29.0555 27.8427 29.7941 27.6017C30.7174 27.3006 37.595 34.2349 38.8842 36.1111C40.1735 37.9873 38.4235 42.7049 33.8829 40.3854Z" fill="#49B236"/>
<path d="M14.7303 39.6128C14.7303 44.397 18.334 45.546 22.7794 45.546C27.2247 45.546 30.8284 44.397 30.8284 39.6128C30.8284 33.3236 27.2247 29.7637 22.7794 29.7637C18.334 29.7637 14.7303 33.3236 14.7303 39.6128Z" fill="#9CD43D"/>
<path d="M22.5322 43.0207C22.4998 43.0209 22.4677 43.0147 22.4377 43.0025C22.4076 42.9903 22.3803 42.9724 22.3573 42.9497L21.261 41.847C21.2207 41.8001 21.1996 41.7398 21.202 41.6781C21.2044 41.6164 21.2301 41.5579 21.2739 41.5143C21.3178 41.4706 21.3766 41.4451 21.4386 41.4427C21.5006 41.4403 21.5613 41.4613 21.6084 41.5014L22.7071 42.5919C22.7302 42.6147 22.7486 42.6418 22.7611 42.6716C22.7736 42.7015 22.78 42.7335 22.78 42.7659C22.78 42.7982 22.7736 42.8303 22.7611 42.8601C22.7486 42.89 22.7302 42.9171 22.7071 42.9399C22.685 42.9644 22.658 42.9841 22.628 42.998C22.5979 43.0119 22.5654 43.0197 22.5322 43.0207Z" fill="#49B236"/>
<path d="M21.4476 43.0207C21.4155 43.0209 21.3836 43.0148 21.3538 43.0026C21.324 42.9904 21.2969 42.9725 21.2741 42.9498C21.2512 42.9271 21.233 42.9001 21.2206 42.8703C21.2082 42.8405 21.2018 42.8085 21.2018 42.7763C21.2018 42.744 21.2082 42.712 21.2206 42.6823C21.233 42.6525 21.2512 42.6254 21.2741 42.6027L22.3618 41.5148C22.3846 41.4919 22.4116 41.4737 22.4414 41.4613C22.4712 41.4489 22.5031 41.4425 22.5354 41.4425C22.5677 41.4425 22.5996 41.4489 22.6294 41.4613C22.6592 41.4737 22.6862 41.4919 22.7089 41.5148C22.7545 41.5606 22.78 41.6226 22.78 41.6872C22.78 41.7518 22.7545 41.8137 22.7089 41.8595L21.6187 42.9498C21.5732 42.995 21.5118 43.0205 21.4476 43.0207Z" fill="#49B236"/>
<path d="M3.20958 18.4422C3.20958 26.7663 12.3842 29.5266 23.5351 29.5266C34.686 29.5266 43.9281 26.7663 43.9281 18.4422C43.9281 6.48437 34.686 1.3551 23.5351 1.3551C12.3842 1.3551 3.20958 5.53743 3.20958 18.4422Z" fill="#49B236"/>
<path d="M36.1945 7.51062V10.0358" stroke="black" stroke-width="2.36736" stroke-linecap="round"/>
<path d="M9.3645 7.35254V9.87772" stroke="black" stroke-width="2.36736" stroke-linecap="round"/>
<path d="M39.6669 15.5594H36.9839" stroke="#9CD43D" stroke-width="3.15647" stroke-linecap="round"/>
<path d="M10.4695 15.5594H7.78648" stroke="#9CD43D" stroke-width="3.15647" stroke-linecap="round"/>
<path d="M19.7811 13.0429C19.7811 11.1467 19.7811 10.1933 23.3321 10.1933C26.8832 10.1933 26.8832 10.9772 26.8832 13.0429C26.8832 16.4274 25.2933 18.4001 23.3321 18.4001C21.371 18.4001 19.7811 16.1906 19.7811 13.0429Z" fill="#FFD2D2"/>
<path fill-rule="evenodd" clip-rule="evenodd" d="M26.8773 13.3928C26.7714 16.5629 25.2247 18.4001 23.3321 18.4001C21.9582 18.4001 20.7665 17.3158 20.176 15.5842C20.8629 14.7816 21.8793 14.0856 23.1068 13.6553C24.4453 13.186 25.7852 13.1202 26.8773 13.3928Z" fill="#FF2D2D"/>
</g>
<defs>
<clipPath id="clip0_1_1708">
<rect width="44" height="52.1481" fill="white" transform="matrix(-1 0 0 1 44 0)"/>
</clipPath>
</defs>
</svg>
