<svg width="140" height="216" viewBox="0 0 140 216" fill="none" xmlns="http://www.w3.org/2000/svg">
<circle cx="131.112" cy="90.92" r="8.05533" fill="#707070"/>
<circle cx="131.112" cy="119.701" r="8.05533" fill="#707070"/>
<rect x="81.4378" y="1.05255" width="26.7672" height="127.878" fill="#707070"/>
<circle cx="94.8633" cy="16.7437" r="11.3278" fill="#414141"/>
<path d="M92.808 20.494C86.2203 36.0849 62.2015 92.3044 56.1386 98.262C53.2438 101.107 26.6445 109.506 26.6445 109.506" stroke="#CACACA" stroke-width="4.19549"/>
<path d="M103.179 6.81157C104.089 4.68057 103.099 2.21548 100.968 1.30566C98.8367 0.395825 96.3716 1.38578 95.4618 3.51679L103.179 6.81157ZM95.4618 3.51679L84.719 28.6786L92.436 31.9734L103.179 6.81157L95.4618 3.51679Z" fill="#414141"/>
<path d="M25.4725 120.318C25.4525 118.636 25.0445 117.134 24.9126 116.567L27.4531 115.087C27.7293 115.18 28.3669 117.043 28.2433 119.203C28.1099 121.535 26.3007 124.576 25.0504 125.826L24.6485 125.698C24.8642 124.969 25.4934 122.079 25.4725 120.318Z" fill="#989898"/>
<path d="M26.3392 99.3302C27.2503 98.898 28.3341 99.3612 28.6514 100.318L33.6733 115.468C33.9906 116.425 33.3981 117.444 32.4093 117.642L7.28168 122.663C6.45079 122.83 5.62645 122.35 5.35983 121.546L2.31374 112.357C2.04712 111.553 2.42188 110.676 3.18744 110.313L26.3392 99.3302Z" fill="#414141"/>
<circle cx="23.8912" cy="110.302" r="5.37022" transform="rotate(71.66 23.8912 110.302)" stroke="#989898" stroke-width="0.839097"/>
<circle cx="5.7383" cy="112.607" r="1.42647" transform="rotate(71.66 5.7383 112.607)" fill="#989898"/>
<circle cx="7.92974" cy="119.218" r="1.42647" transform="rotate(71.66 7.92974 119.218)" fill="#989898"/>
<path d="M94.8633 46.7833V118.904" stroke="black" stroke-width="4.19549" stroke-linecap="round"/>
<rect x="88.5701" y="94.3602" width="12.5026" height="8.39097" rx="2.93684" fill="#414141"/>
<g filter="url(#filter0_d_84_449)">
<path d="M96.5891 103.902C113.371 131.85 95.8701 183.318 85.0222 205.559C82.5994 206.958 76.2468 209.383 70.218 207.892C62.6821 206.03 45.3862 129.914 44.5827 111.737C43.7791 93.5603 75.6122 68.968 96.5891 103.902Z" fill="white"/>
</g>
<defs>
<filter id="filter0_d_84_449" x="41.0692" y="86.2324" width="65.9713" height="129.125" filterUnits="userSpaceOnUse" color-interpolation-filters="sRGB">
<feFlood flood-opacity="0" result="BackgroundImageFix"/>
<feColorMatrix in="SourceAlpha" type="matrix" values="0 0 0 0 0 0 0 0 0 0 0 0 0 0 0 0 0 0 127 0" result="hardAlpha"/>
<feOffset dy="3.49854"/>
<feGaussianBlur stdDeviation="1.74927"/>
<feComposite in2="hardAlpha" operator="out"/>
<feColorMatrix type="matrix" values="0 0 0 0 0 0 0 0 0 0 0 0 0 0 0 0 0 0 0.1 0"/>
<feBlend mode="normal" in2="BackgroundImageFix" result="effect1_dropShadow_84_449"/>
<feBlend mode="normal" in="SourceGraphic" in2="effect1_dropShadow_84_449" result="shape"/>
</filter>
</defs>
</svg>
