<svg width="362" height="261" viewBox="0 0 362 261" fill="none" xmlns="http://www.w3.org/2000/svg">
<rect x="26.7647" y="124.265" width="85.1765" height="38.3529" rx="11.7647" fill="#123041"/>
<rect x="189.588" y="124.265" width="85.1765" height="38.3529" rx="11.7647" fill="#123041"/>
<g clip-path="url(#clip0_1_954)">
<path d="M128.865 134.149C118.114 138.028 101.597 128.526 94.6825 123.29C94.3656 122.362 93.962 120.013 94.8832 118.041C96.0347 115.575 123.388 114.78 129.695 115.734C136.001 116.688 142.302 129.3 128.865 134.149Z" fill="#4B9B3A"/>
<circle cx="116.176" cy="146.853" r="8.47059" fill="#D15757"/>
<path d="M107.706 146.618H124.647" stroke="black" stroke-width="2.35294" stroke-linecap="round"/>
<path d="M123.399 53.109C124.583 49.3949 128.555 47.3445 132.269 48.5293L180.913 64.0467C184.627 65.2315 186.677 69.2028 185.492 72.9169L177.984 96.4542C176.799 100.168 172.828 102.219 169.114 101.034L120.47 85.5165C116.756 84.3317 114.705 80.3603 115.89 76.6463L123.399 53.109Z" fill="#9EE7E5"/>
<path d="M152.831 63.703C158.658 65.23 160.239 70.1277 158.712 75.9544C157.078 82.1891 152.239 85.6846 146.703 84.2339C144.198 83.5773 142.438 82.2133 141.15 80.4747L144.045 77.7462C144.972 79.0789 146.006 80.0037 147.696 80.4465C150.289 81.126 152.602 79.4282 153.866 76.148C152.33 77.0218 150.311 77.24 148.446 76.7514C144.746 75.7817 142.313 72.5911 143.352 68.6289C144.428 64.521 148.461 62.5578 152.831 63.703ZM150.586 73.576C152.247 74.0112 153.794 73.4516 154.773 72.2135C155.035 69.667 154.353 67.9937 152.11 67.4058C149.954 66.8408 148.224 67.9755 147.804 69.5778C147.3 71.5007 148.663 73.0721 150.586 73.576Z" fill="#123041"/>
<path d="M141.334 90.5668C142.025 88.4003 144.342 87.2042 146.508 87.8953C148.675 88.5865 149.871 90.9031 149.18 93.0696L139.883 122.211C139.192 124.378 136.876 125.574 134.709 124.883C132.543 124.191 131.347 121.875 132.038 119.708L141.334 90.5668Z" fill="#9EE7E5"/>
<g clip-path="url(#clip1_1_954)">
<ellipse cx="43.3484" cy="64.9695" rx="15.4845" ry="16.6865" transform="rotate(-28.6896 43.3484 64.9695)" fill="#49B236"/>
<ellipse cx="15.4845" cy="16.6865" rx="15.4845" ry="16.6865" transform="matrix(-0.877234 -0.480064 -0.480064 0.877234 132.216 57.3331)" fill="#49B236"/>
<path d="M127.122 91.7673C127.122 112.199 104.602 118.975 77.232 118.975C49.8617 118.975 27.1764 112.199 27.1764 91.7673C27.1764 62.4163 49.8617 49.8263 77.232 49.8263C104.602 49.8263 127.122 60.092 127.122 91.7673Z" fill="#49B236"/>
<path d="M46.1589 64.9351V71.1333" stroke="black" stroke-width="5.81078" stroke-linecap="round"/>
<path d="M112.014 64.5472V70.7454" stroke="black" stroke-width="5.81078" stroke-linecap="round"/>
<path d="M37.6358 84.6913H44.2214" stroke="#9CD43D" stroke-width="7.74771" stroke-linecap="round"/>
<path d="M109.302 84.6913H115.888" stroke="#9CD43D" stroke-width="7.74771" stroke-linecap="round"/>
<path d="M86.4464 78.5144C86.4464 73.8599 86.4464 71.5199 77.7302 71.5199C69.0141 71.5199 69.0141 73.4441 69.0141 78.5144C69.0141 86.8216 72.9164 91.6639 77.7302 91.6639C82.5441 91.6639 86.4464 86.2405 86.4464 78.5144Z" fill="#FFD2D2"/>
<path fill-rule="evenodd" clip-rule="evenodd" d="M69.0285 79.3732C69.2884 87.1545 73.085 91.664 77.7305 91.664C81.1027 91.664 84.0277 89.0025 85.4771 84.7522C83.7912 82.7822 81.2962 81.0738 78.2835 80.0176C74.998 78.8658 71.7092 78.7042 69.0285 79.3732Z" fill="#FF2D2D"/>
<path d="M100.423 173.968C103.201 172.832 105.907 157.695 105.358 150.16L78.6712 154.419C78.1228 160.535 78.0863 173.007 79.4023 173.968C81.0474 175.169 96.95 175.388 100.423 173.968Z" fill="#4B9B3A"/>
<path d="M102.509 157.202C110.815 151.679 99.5868 117.225 91.4742 112.885C83.3615 108.545 70.1665 109.203 64.3717 112.885C58.5768 116.567 44.2569 151.547 52.5627 157.202C60.8686 162.857 94.2029 162.725 102.509 157.202Z" fill="#49B236"/>
<path d="M55.0382 173.968C52.2598 172.832 49.5545 157.695 50.1029 150.16L76.79 154.419C77.3384 160.535 77.3749 173.007 76.0588 173.968C74.4138 175.169 58.5112 175.388 55.0382 173.968Z" fill="#49B236"/>
<path d="M33.4319 133.649C44.2728 135.818 58.7105 124.357 64.5742 118.356C64.7442 117.423 64.7932 115.118 63.629 113.363C62.1737 111.17 35.8919 114.334 29.9956 116.152C24.0993 117.97 19.8808 130.939 33.4319 133.649Z" fill="#49B236"/>
<path d="M98.8437 143.732C98.8437 155.475 89.9984 158.295 79.0871 158.295C68.1758 158.295 59.3304 155.475 59.3304 143.732C59.3304 128.294 68.1758 119.556 79.0871 119.556C89.9984 119.556 98.8437 128.294 98.8437 143.732Z" fill="#9CD43D"/>
<path d="M79.6936 152.096C79.7732 152.097 79.8521 152.082 79.9258 152.052C79.9995 152.022 80.0665 151.978 80.123 151.922L82.8139 149.215C82.9129 149.1 82.9647 148.952 82.9588 148.801C82.953 148.649 82.8899 148.506 82.7822 148.399C82.6745 148.292 82.5301 148.229 82.3779 148.223C82.2257 148.217 82.0769 148.269 81.9613 148.367L79.2643 151.044C79.2076 151.1 79.1626 151.166 79.1319 151.24C79.1012 151.313 79.0854 151.391 79.0854 151.471C79.0854 151.55 79.1012 151.629 79.1319 151.702C79.1626 151.775 79.2076 151.842 79.2643 151.898C79.3188 151.958 79.3849 152.007 79.4586 152.041C79.5324 152.075 79.6123 152.094 79.6936 152.096Z" fill="#49B236"/>
<path d="M82.3558 152.096C82.4348 152.097 82.5131 152.082 82.5862 152.052C82.6593 152.022 82.7257 151.978 82.7818 151.922C82.838 151.867 82.8827 151.8 82.9131 151.727C82.9436 151.654 82.9593 151.576 82.9593 151.496C82.9593 151.417 82.9436 151.339 82.9131 151.266C82.8827 151.192 82.838 151.126 82.7818 151.07L80.1119 148.4C80.0561 148.344 79.9898 148.299 79.9166 148.269C79.8435 148.238 79.7651 148.223 79.6859 148.223C79.6067 148.223 79.5283 148.238 79.4552 148.269C79.3821 148.299 79.3157 148.344 79.2599 148.4C79.1482 148.512 79.0854 148.665 79.0854 148.823C79.0854 148.982 79.1482 149.134 79.2599 149.246L81.9358 151.922C82.0476 152.033 82.1984 152.096 82.3558 152.096Z" fill="#49B236"/>
</g>
</g>
<path d="M297.747 131.105C289.387 138.215 271.331 135.235 263.349 132.857C262.751 132.129 261.597 130.153 261.761 128.069C261.966 125.463 286.296 115.532 292.289 114.265C298.282 112.998 308.198 122.216 297.747 131.105Z" fill="#EFD565"/>
<path fill-rule="evenodd" clip-rule="evenodd" d="M296.382 49.0324C292.719 47.6988 288.668 49.5873 287.334 53.2505L278.882 76.4658C277.549 80.129 279.437 84.1798 283.101 85.5135L303.221 92.8385L293.28 120.144C292.502 122.281 293.603 124.644 295.74 125.422C297.877 126.2 300.24 125.098 301.018 122.961L310.959 95.6558L331.079 102.981C334.742 104.314 338.793 102.426 340.127 98.7625L348.578 75.5473C349.912 71.884 348.023 67.8332 344.36 66.4995L296.382 49.0324Z" fill="#9EE7E5"/>
<path d="M309.937 86.4035C305.636 84.8374 302.868 81.5222 304.146 78.0129C304.98 75.7206 307.183 74.5996 309.728 74.5645C308.103 73.0432 307.231 71.1233 308.035 68.9158C309.281 65.4915 313.471 64.9012 317.263 66.2819C321.14 67.6934 323.854 70.8928 322.638 74.2323C321.844 76.4114 319.971 77.3319 317.709 77.47C319.672 79.2102 320.582 81.4646 319.768 83.7003C318.48 87.2379 314.211 87.9593 309.937 86.4035ZM314.244 74.5739C315.814 75.0171 317.785 74.7091 318.31 73.2657C318.794 71.9356 317.825 70.4608 315.985 69.7911C314.118 69.1111 312.455 69.6277 311.971 70.9578C311.425 72.4577 312.757 73.9043 314.244 74.5739ZM311.215 82.8943C313.281 83.6464 315.18 83.1839 315.716 81.7123C316.272 80.1841 314.698 78.5213 313.049 77.8568C311.359 77.3055 309.084 77.5671 308.528 79.0953C307.992 80.5669 309.121 82.1318 311.215 82.8943Z" fill="#123041"/>
<path d="M270.949 186.778C273.995 185.533 276.96 168.94 276.359 160.679L247.104 165.348C246.503 172.053 246.463 185.725 247.906 186.778C249.709 188.095 267.142 188.335 270.949 186.778Z" fill="#EFD565"/>
<path d="M221.199 186.778C218.153 185.533 215.188 168.94 215.789 160.679L245.044 165.348C245.645 172.053 245.685 185.725 244.242 186.778C242.439 188.095 225.006 188.335 221.199 186.778Z" fill="#FFE36C"/>
<path d="M248.227 162.803C248.314 162.803 248.401 162.787 248.482 162.754C248.562 162.721 248.636 162.673 248.698 162.612L251.648 159.644C251.756 159.518 251.813 159.356 251.807 159.19C251.8 159.024 251.731 158.867 251.613 158.749C251.495 158.632 251.337 158.563 251.17 158.557C251.003 158.55 250.84 158.607 250.713 158.715L247.756 161.649C247.694 161.71 247.645 161.783 247.611 161.863C247.578 161.944 247.56 162.03 247.56 162.117C247.56 162.204 247.578 162.29 247.611 162.371C247.645 162.451 247.694 162.524 247.756 162.585C247.816 162.651 247.889 162.704 247.969 162.742C248.05 162.779 248.138 162.8 248.227 162.803Z" fill="#FFBB4D"/>
<path d="M251.145 162.803C251.232 162.803 251.318 162.787 251.398 162.754C251.478 162.721 251.551 162.673 251.612 162.612C251.674 162.551 251.723 162.478 251.756 162.398C251.79 162.318 251.807 162.232 251.807 162.145C251.807 162.058 251.79 161.972 251.756 161.892C251.723 161.812 251.674 161.739 251.612 161.678L248.686 158.751C248.624 158.689 248.552 158.64 248.472 158.607C248.391 158.573 248.305 158.556 248.219 158.556C248.132 158.556 248.046 158.573 247.966 158.607C247.886 158.64 247.813 158.689 247.752 158.751C247.629 158.874 247.56 159.041 247.56 159.214C247.56 159.388 247.629 159.555 247.752 159.678L250.685 162.612C250.808 162.733 250.973 162.802 251.145 162.803Z" fill="#FFBB4D"/>
<path fill-rule="evenodd" clip-rule="evenodd" d="M245.158 44.8612C243.329 40.4265 240.079 35.8644 235.355 31.6754C232.079 28.7704 226.529 29.0591 226.322 35.7379C226.168 40.75 228.647 45.0997 231.867 47.1688C207.752 50.3556 189.381 64.4571 189.381 97.1933C189.381 113.155 202.08 121.434 220.22 124.817C212.981 130.46 202.81 140.709 202.973 150.153C203.149 160.444 210.745 161.995 215.721 159.832C215.607 163.849 216.39 166.974 218.483 168.399C227.588 174.598 264.131 174.454 273.236 168.399C280.763 163.394 273.656 136.714 265.941 124.929C284.356 121.618 297.246 113.334 297.246 97.1933C297.246 62.1832 278.241 49.4075 253.417 46.9198C254.783 46.3479 255.838 45.6388 256.244 44.773C257.414 42.2849 256.684 39.1915 255.261 38.4542C253.837 37.7169 249.693 38.2511 247.186 40.6992C246.166 41.6949 245.533 43.2877 245.158 44.8612Z" fill="#FFE36C"/>
<path d="M208.492 102.618H214.862" stroke="#FFA052" stroke-width="8.49329" stroke-linecap="round"/>
<path d="M278.986 102.618H285.356" stroke="#FFA052" stroke-width="8.49329" stroke-linecap="round"/>
<path d="M257.753 102.5C257.753 106.37 252.904 108.021 246.924 108.021C240.943 108.021 236.095 106.37 236.095 102.5C236.095 98.6304 240.943 94.007 246.924 94.007C252.904 94.007 257.753 98.6304 257.753 102.5Z" fill="#FFBB4D"/>
<path d="M225.353 95.3235C225.353 95.3235 224.122 93.9117 221.353 93.9117C218.584 93.9117 217.353 95.3235 217.353 95.3235" stroke="black" stroke-width="5.01738" stroke-linecap="round"/>
<path d="M276.412 95.3235C276.412 95.3235 275.181 93.9117 272.412 93.9117C269.643 93.9117 268.412 95.3235 268.412 95.3235" stroke="black" stroke-width="5.01738" stroke-linecap="round"/>
<circle cx="276.882" cy="146.853" r="8.47059" fill="#D15757"/>
<path d="M268.412 146.618H285.353" stroke="black" stroke-width="2.35294" stroke-linecap="round"/>
<g filter="url(#filter0_d_1_954)">
<path d="M16.1765 158.853H345.824V236.5C345.824 238.709 344.033 240.5 341.824 240.5H20.1765C17.9673 240.5 16.1765 238.709 16.1765 236.5V158.853Z" fill="#173A52"/>
</g>
<rect x="11" y="146.853" width="340" height="12" rx="4" fill="#005271"/>
<path d="M84.9355 195.672V187.004L66.2941 205.187L70.6982 209.572L84.9355 195.672ZM127.413 190.255C126.032 183.482 120.811 178.403 120.212 177.802L107.399 165.104L100.076 172.241L99.5551 172.749V181.417L107.373 173.798L114.661 181.019L115.773 182.12L115.851 182.196C115.851 182.196 116.338 182.661 117.007 183.44C119.058 185.738 120.515 188.481 121.254 191.44C122.297 196.519 122.818 202.504 117.007 209.767V218.723C117.554 218.258 117.875 217.927 118.023 217.809C123.235 212.831 126.353 207.803 127.578 202.428C128.426 198.406 128.372 194.254 127.422 190.255H127.413ZM88.6013 217.013L88.4102 216.92H88.3146C87.7469 216.631 87.2062 216.294 86.699 215.913C86.2212 215.583 85.6392 215.142 84.9616 214.575C83.9019 213.729 82.5814 212.577 80.9744 211.045L77.3695 207.456L72.922 211.79L76.5096 215.354V215.405C82.0603 220.687 84.9095 222.177 85.9606 222.609C89.2888 224.206 92.8956 225.18 96.593 225.478C98.292 225.608 99.9999 225.574 101.692 225.377L102.1 225.334V219.121C97.4879 219.833 92.7627 219.095 88.61 217.013H88.6013Z" fill="#9EE7E5"/>
<path d="M96.4196 175.813V212.823H88.0891V183.939L88.923 183.127L89.3747 182.687L91.8939 180.232L93.5964 178.573L94.1524 178.031L95.8636 176.363L96.4196 175.813Z" fill="#9EE7E5"/>
<path d="M113.862 184.083V221.009L113.758 221.085C113.376 221.322 112.967 221.567 112.533 221.804C112.394 221.889 112.246 221.965 112.099 222.041C111.717 222.253 111.308 222.465 110.891 222.668C110.474 222.871 110.101 223.04 109.684 223.218L108.998 223.506L108.059 223.861L107.295 224.124C106.774 224.293 106.235 224.454 105.679 224.598L105.271 224.699V184.083H113.862Z" fill="#9EE7E5"/>
<path d="M105.271 193.844H96.4191V202.224H105.271V193.844Z" fill="#9EE7E5"/>
<path d="M247.759 195.672V187.004L229.118 205.187L233.522 209.572L247.759 195.672ZM290.237 190.255C288.855 183.482 283.635 178.403 283.035 177.802L270.223 165.104L262.9 172.241L262.379 172.749V181.417L270.196 173.798L277.485 181.019L278.596 182.12L278.675 182.196C278.675 182.196 279.161 182.661 279.83 183.44C281.882 185.738 283.338 188.481 284.078 191.44C285.12 196.519 285.641 202.504 279.83 209.767V218.723C280.377 218.258 280.699 217.927 280.846 217.809C286.058 212.831 289.177 207.803 290.402 202.428C291.249 198.406 291.196 194.254 290.245 190.255H290.237ZM251.425 217.013L251.234 216.92H251.138C250.57 216.631 250.03 216.294 249.522 215.913C249.045 215.583 248.463 215.142 247.785 214.575C246.725 213.729 245.405 212.577 243.798 211.045L240.193 207.456L235.745 211.79L239.333 215.354V215.405C244.884 220.687 247.733 222.177 248.784 222.609C252.112 224.206 255.719 225.18 259.416 225.478C261.115 225.608 262.823 225.574 264.516 225.377L264.924 225.334V219.121C260.311 219.833 255.586 219.095 251.433 217.013H251.425Z" fill="#9EE7E5"/>
<path d="M259.243 175.813V212.823H250.913V183.939L251.747 183.127L252.198 182.687L254.717 180.232L256.42 178.573L256.976 178.031L258.687 176.363L259.243 175.813Z" fill="#9EE7E5"/>
<path d="M276.686 184.083V221.009L276.581 221.085C276.199 221.322 275.791 221.567 275.357 221.804C275.218 221.889 275.07 221.965 274.922 222.041C274.54 222.253 274.132 222.465 273.715 222.668C273.298 222.871 272.924 223.04 272.507 223.218L271.821 223.506L270.883 223.861L270.119 224.124C269.597 224.293 269.059 224.454 268.503 224.598L268.095 224.699V184.083H276.686Z" fill="#9EE7E5"/>
<path d="M268.094 193.844H259.243V202.224H268.094V193.844Z" fill="#9EE7E5"/>
<defs>
<filter id="filter0_d_1_954" x="0.176483" y="146.853" width="361.647" height="113.647" filterUnits="userSpaceOnUse" color-interpolation-filters="sRGB">
<feFlood flood-opacity="0" result="BackgroundImageFix"/>
<feColorMatrix in="SourceAlpha" type="matrix" values="0 0 0 0 0 0 0 0 0 0 0 0 0 0 0 0 0 0 127 0" result="hardAlpha"/>
<feOffset dy="4"/>
<feGaussianBlur stdDeviation="8"/>
<feComposite in2="hardAlpha" operator="out"/>
<feColorMatrix type="matrix" values="0 0 0 0 0 0 0 0 0 0 0 0 0 0 0 0 0 0 0.16 0"/>
<feBlend mode="normal" in2="BackgroundImageFix" result="effect1_dropShadow_1_954"/>
<feBlend mode="normal" in="SourceGraphic" in2="effect1_dropShadow_1_954" result="shape"/>
</filter>
<clipPath id="clip0_1_954">
<rect width="174.353" height="193.647" fill="white" transform="translate(11 0.5)"/>
</clipPath>
<clipPath id="clip1_1_954">
<rect width="118" height="128" fill="white" transform="translate(22 46.5)"/>
</clipPath>
</defs>
</svg>
