<svg width="210" height="210" viewBox="0 0 210 210" fill="none" xmlns="http://www.w3.org/2000/svg">
<circle cx="105.055" cy="104.887" r="104.887" fill="#1E1E1E"/>
<circle cx="105.055" cy="104.887" r="98.7618" stroke="#454545" stroke-width="0.839097"/>
<circle cx="105.055" cy="104.887" r="89.4478" stroke="#454545" stroke-width="0.839097"/>
<circle cx="105.055" cy="104.887" r="59.5759" stroke="#454545" stroke-width="0.839097"/>
<circle cx="105.055" cy="104.887" r="70.1485" stroke="#454545" stroke-width="0.839097"/>
<circle cx="105.055" cy="104.887" r="79.966" stroke="#454545" stroke-width="0.839097"/>
<mask id="mask0_81_448" style="mask-type:alpha" maskUnits="userSpaceOnUse" x="0" y="0" width="210" height="210">
<circle cx="105.055" cy="104.887" r="104.887" fill="#FFB74B"/>
</mask>
<g mask="url(#mask0_81_448)">
<g clip-path="url(#clip0_81_448)">
<path d="M136.981 42.529C128.268 37.3728 130.96 34.8023 133.211 30.9986C135.462 27.1949 136.597 23.7031 145.133 28.7546C149.466 31.3189 151.154 36.4813 148.903 40.285C146.652 44.0887 141.314 45.0933 136.981 42.529Z" fill="white"/>
<path d="M124.211 41.6475C124.211 36.8451 125.886 36.8167 127.952 36.8167C130.019 36.8167 131.694 36.8451 131.694 41.6475C131.694 46.45 129.401 50.3431 127.952 50.3431C126.504 50.3431 124.211 46.45 124.211 41.6475Z" fill="#FFC145"/>
<path d="M79.0276 41.6475C79.0276 36.8451 80.7027 36.8167 82.769 36.8167C84.8353 36.8167 86.5104 36.8451 86.5104 41.6475C86.5104 46.45 84.2173 50.3431 82.769 50.3431C81.3207 50.3431 79.0276 46.45 79.0276 41.6475Z" fill="#FFC145"/>
<path d="M72.9153 42.529C81.6279 37.3728 78.9364 34.8023 76.6853 30.9986C74.4343 27.1949 73.2994 23.7031 64.7636 28.7546C60.4304 31.3189 58.7426 36.4813 60.9936 40.285C63.2446 44.0887 68.5822 45.0933 72.9153 42.529Z" fill="black"/>
<path d="M70.7663 38.1337C75.1087 35.5638 73.9844 34.6495 73.1303 33.2064C72.2762 31.7632 71.9277 30.3897 67.6734 32.9075C65.5137 34.1856 64.4553 36.3916 65.3094 37.8348C66.1635 39.278 68.6066 39.4118 70.7663 38.1337Z" fill="#FFCACA"/>
<path d="M139.391 38.1337C135.049 35.5638 136.173 34.6495 137.027 33.2064C137.881 31.7632 138.23 30.3897 142.484 32.9075C144.644 34.1856 145.702 36.3916 144.848 37.8348C143.994 39.278 141.551 39.4118 139.391 38.1337Z" fill="#FFCACA"/>
<path d="M68.9542 12.7852C68.9542 -2.23525 85.425 -7.21612 105.444 -7.21611C125.463 -7.21611 142.055 -2.23524 142.055 12.7852C142.055 38.3966 125.463 47.1776 105.444 47.1776C85.425 47.1776 68.9541 39.6161 68.9542 12.7852Z" fill="white"/>
<path fill-rule="evenodd" clip-rule="evenodd" d="M102.899 47.1348C102.731 42.3422 101.73 36.0562 98.5893 33.514C95.8277 31.2785 92.6408 30.7091 89.7929 30.2004C87.359 29.7656 85.1728 29.3751 83.7117 28.0264C82.9353 27.3098 82.2467 26.3153 81.5009 25.2382C79.2538 21.9931 76.4869 17.9973 69.2352 18.5867C71.3803 39.7003 85.5481 46.5468 102.899 47.1348Z" fill="black"/>
<path d="M123.06 15.5195L123.06 10.9148" stroke="black" stroke-width="4.31696" stroke-linecap="round"/>
<path d="M84.4945 15.5195L84.4945 10.9148" stroke="black" stroke-width="4.31696" stroke-linecap="round"/>
<path d="M117.304 4.81346C117.304 10.7263 112.511 15.5195 106.598 15.5195L101.245 15.5195C95.3321 15.5195 90.5388 10.7263 90.5388 4.81346C90.5388 0.871597 93.7343 -2.32392 97.6762 -2.32392L110.167 -2.32391C114.108 -2.32391 117.304 0.871599 117.304 4.81346Z" fill="#FFCACA"/>
<path d="M109.533 7.46161L109.533 4.29584" stroke="black" stroke-width="2.87797" stroke-linecap="round"/>
<path d="M98.0217 7.46161L98.0217 4.29584" stroke="black" stroke-width="2.87797" stroke-linecap="round"/>
<path d="M131.694 4.29553L127.377 4.29553" stroke="#FFD2D2" stroke-width="5.75595" stroke-linecap="round"/>
<path d="M80.1779 4.29553L75.8609 4.29553" stroke="#FFD2D2" stroke-width="5.75595" stroke-linecap="round"/>
</g>
<g clip-path="url(#clip1_81_448)">
<path d="M11.6097 142.137C-3.41072 142.137 -8.39159 125.666 -8.39159 105.647C-8.39159 85.6285 -3.41072 69.0364 11.6097 69.0364C37.2211 69.0364 46.0021 85.6285 46.0021 105.647C46.0021 125.666 38.4407 142.137 11.6097 142.137Z" fill="#FFE36C"/>
<path d="M4.27173 81.9879L4.27173 86.3048" stroke="#FFA052" stroke-width="5.75595" stroke-linecap="round"/>
<path d="M4.27179 129.762L4.27179 134.079" stroke="#FFA052" stroke-width="5.75595" stroke-linecap="round"/>
<path d="M14.6326 90.6214L10.0279 90.6214" stroke="black" stroke-width="4.31696" stroke-linecap="round"/>
<path d="M14.6326 125.445L10.0279 125.445" stroke="black" stroke-width="4.31696" stroke-linecap="round"/>
<path d="M8.01303 115.372C5.39042 115.372 4.27167 112.086 4.27167 108.033C4.27167 103.98 5.39042 100.694 8.01303 100.694C10.6356 100.694 13.769 103.98 13.769 108.033C13.769 112.086 10.6356 115.372 8.01303 115.372Z" fill="#FFBB4D"/>
<path d="M56.0115 100.193C52.14 104.559 47.7981 107.067 43.8464 107.809L44.6656 100.126C45.003 96.9622 48.7321 93.9317 53.2584 94.0715C57.7847 94.2114 57.9803 97.9728 56.0115 100.193Z" fill="#FFE36C"/>
<path d="M49.8962 108.211C48.5689 106.851 45.6765 106.508 44.3962 106.506C44.6396 109.139 45.4491 113.558 47.1353 114.35C48.8215 115.142 50.9179 114.648 51.4176 113.683C51.9173 112.719 51.5553 109.91 49.8962 108.211Z" fill="#FFE36C"/>
</g>
<g clip-path="url(#clip2_81_448)">
<ellipse cx="176.064" cy="130.423" rx="11.5038" ry="12.3968" transform="rotate(-118.69 176.064 130.423)" fill="#49B236"/>
<ellipse cx="11.5038" cy="12.3968" rx="11.5038" ry="12.3968" transform="matrix(-0.480064 0.877234 0.877234 0.480064 170.391 64.4006)" fill="#49B236"/>
<path d="M195.972 68.1837C211.151 68.1837 216.185 84.9139 216.185 105.248C216.185 125.582 211.151 142.435 195.972 142.435C174.167 142.435 164.813 125.582 164.813 105.248C164.813 84.914 172.44 68.1837 195.972 68.1837Z" fill="#49B236"/>
<path d="M176.038 128.334L180.643 128.334" stroke="black" stroke-width="4.31696" stroke-linecap="round"/>
<path d="M175.75 79.4086L180.355 79.4086" stroke="black" stroke-width="4.31696" stroke-linecap="round"/>
<path d="M190.716 134.665L190.716 129.773" stroke="#9CD43D" stroke-width="5.75595" stroke-linecap="round"/>
<path d="M190.716 81.4224L190.716 76.5299" stroke="#9CD43D" stroke-width="5.75595" stroke-linecap="round"/>
<path d="M186.127 98.4026C182.669 98.4026 180.93 98.4026 180.93 104.878C180.93 111.353 182.36 111.353 186.127 111.353C192.298 111.353 195.896 108.454 195.896 104.878C195.896 101.302 191.867 98.4026 186.127 98.4026Z" fill="#FFD2D2"/>
<path fill-rule="evenodd" clip-rule="evenodd" d="M186.766 111.343C192.546 111.15 195.896 108.33 195.896 104.878C195.896 102.373 193.918 100.199 190.76 99.1226C189.297 100.375 188.028 102.228 187.244 104.465C186.388 106.907 186.268 109.351 186.766 111.343Z" fill="#FF2D2D"/>
</g>
<g clip-path="url(#clip3_81_448)">
<path d="M81.8641 157.975C84.1665 165.438 94.0249 180.05 96.1101 186.16H115.824C117.909 180.05 127.008 165.438 129.926 157.975C133.546 148.719 129.781 136.689 119.614 136.689C111.219 136.689 107.287 150.551 106.183 157.975C105.079 150.551 89.971 147.849 81.8641 147.849C71.6969 147.849 78.9343 148.479 81.8641 157.975Z" fill="white"/>
<path d="M77.8423 164.807C69.8126 158.57 74.1615 147.02 82.3008 141.317L101.507 156.235C96.0811 161.421 84.2447 169.78 77.8423 164.807Z" fill="white"/>
<path d="M141.611 200.437C141.611 215.458 125.14 220.439 105.121 220.439C85.1024 220.439 68.5103 215.458 68.5103 200.437C68.5103 174.826 85.1024 166.045 105.121 166.045C125.14 166.045 141.611 173.607 141.611 200.437Z" fill="white"/>
<path d="M91.5337 195.976V200.581" stroke="black" stroke-width="4.31696" stroke-linecap="round"/>
<path d="M126.358 195.976V200.581" stroke="black" stroke-width="4.31696" stroke-linecap="round"/>
<path d="M82.9001 207.2H87.2171" stroke="#FFD2D2" stroke-width="5.75595" stroke-linecap="round"/>
<path d="M130.674 207.2H134.991" stroke="#FFD2D2" stroke-width="5.75595" stroke-linecap="round"/>
<path d="M113.694 207.908C113.694 210.501 113.694 211.805 108.946 211.805C104.197 211.805 104.197 210.733 104.197 207.908C104.197 205.082 106.323 200.581 108.946 200.581C111.568 200.581 113.694 205.314 113.694 207.908Z" fill="#FFD2D2"/>
<path fill-rule="evenodd" clip-rule="evenodd" d="M104.899 204.614C105.735 202.497 107.234 200.581 108.946 200.581C110.633 200.581 112.116 202.542 112.958 204.63C111.819 205.162 110.436 205.474 108.946 205.474C107.44 205.474 106.044 205.156 104.899 204.614Z" fill="#EFEFEF"/>
<path d="M107.769 196.552C108.333 196.552 108.592 196.787 108.945 197.023C109.298 196.787 109.557 196.552 110.122 196.552C110.828 196.552 111.238 197.292 111.064 197.729C110.828 198.318 109.965 198.906 108.945 199.142C107.925 198.906 107.062 198.318 106.827 197.729C106.652 197.292 107.062 196.552 107.769 196.552Z" fill="#FFD2D2"/>
</g>
</g>
<circle cx="105.055" cy="104.887" r="49.4648" fill="#55B7D7" stroke="#005271" stroke-width="0.419549"/>
<circle cx="105.055" cy="104.887" r="42.8359" fill="#A7C0AF" stroke="#005271" stroke-width="0.419549"/>
<circle cx="105.055" cy="104.887" r="35.6197" fill="#E2C692" stroke="#005271" stroke-width="0.419549"/>
<circle cx="105.055" cy="104.887" r="26.7253" fill="#F4AD74" stroke="#005271" stroke-width="0.419549"/>
<circle cx="105.055" cy="104.887" r="18.1665" fill="#FDA064" stroke="#005271" stroke-width="0.419549"/>
<path d="M80.9426 99.7486L81.0284 99.1924L85.928 99.9487L85.8421 100.505L83.6098 100.16L83.1639 103.049L85.3962 103.393L85.3103 103.95L80.4108 103.193L80.4967 102.637L82.6362 102.967L83.0821 100.079L80.9426 99.7486Z" fill="#123041"/>
<path d="M83.5933 95.3628C83.7963 94.9108 84.0795 94.6266 84.4429 94.5103C84.8038 94.3876 85.1972 94.4219 85.6229 94.6131L87.6965 95.5443L87.4747 96.038L86.9415 95.7986C87.0814 96.0038 87.156 96.2429 87.1652 96.516C87.1719 96.7827 87.1221 97.0346 87.0157 97.2716C86.8521 97.6358 86.6193 97.8899 86.3174 98.0338C86.0155 98.1777 85.6999 98.1758 85.3708 98.0279C85.1513 97.9294 84.9827 97.7825 84.8647 97.5871C84.7444 97.3854 84.6834 97.1629 84.6819 96.9196C84.678 96.67 84.7303 96.4245 84.8386 96.1831C84.9924 95.8408 85.2216 95.5008 85.5262 95.1629L85.4011 95.1068C85.1247 94.9826 84.8605 94.9484 84.6088 95.0041C84.3526 95.0578 84.1496 95.2514 83.9998 95.5849C83.9308 95.7385 83.8884 95.9093 83.8725 96.0973C83.8543 96.279 83.851 96.4858 83.8628 96.7179L83.3726 96.735C83.3502 96.1976 83.4238 95.7402 83.5933 95.3628ZM86.6197 96.9909C86.73 96.7451 86.7721 96.4871 86.7457 96.2169C86.717 95.9403 86.6045 95.721 86.4083 95.5591L85.8883 95.3255C85.6463 95.6177 85.4465 95.9393 85.2888 96.2904C85.1726 96.5493 85.1389 96.8005 85.1877 97.0439C85.2386 97.283 85.365 97.4479 85.5668 97.5385C85.7731 97.6312 85.9731 97.6261 86.167 97.5233C86.3584 97.4141 86.5093 97.2366 86.6197 96.9909Z" fill="#123041"/>
<path d="M89.5127 93.006C89.3071 93.2788 89.0434 93.4806 88.7218 93.6117C88.4001 93.7427 88.0666 93.7895 87.7212 93.7521C87.375 93.708 87.0635 93.5816 86.7869 93.3731C86.5103 93.1646 86.3051 92.9015 86.1712 92.5836C86.0401 92.2619 85.9933 91.9284 86.0307 91.5831C86.0681 91.2378 86.1896 90.9287 86.3952 90.656C86.5458 90.4562 86.7276 90.295 86.9405 90.1724C87.1564 90.0459 87.387 89.9637 87.6325 89.9258L87.7005 90.447C87.5176 90.4658 87.3462 90.5173 87.1863 90.6016C87.0264 90.6859 86.8914 90.801 86.7813 90.947C86.6336 91.1429 86.5499 91.366 86.53 91.6161C86.5092 91.8594 86.5514 92.0991 86.6567 92.3351C86.7649 92.5673 86.9227 92.7615 87.1301 92.9179C87.3414 93.0772 87.5735 93.1769 87.8265 93.2169C88.0785 93.2503 88.3205 93.2249 88.5526 93.1408C88.7876 93.0528 88.9789 92.9109 89.1266 92.715C89.2367 92.569 89.3116 92.4056 89.3515 92.2248C89.3876 92.0411 89.3871 91.854 89.35 91.6634L89.8698 91.5853C89.9048 91.8346 89.8916 92.0837 89.8304 92.3328C89.7721 92.578 89.6662 92.8024 89.5127 93.006Z" fill="#123041"/>
<path d="M87.8305 87.1353L88.2439 86.786L90.4231 89.3661L90.6515 86.4716L91.1808 86.0246L90.9998 88.4161L93.5165 88.9353L92.9983 89.373L90.9451 88.944L90.8608 89.8843L91.4987 90.6395L91.0853 90.9888L87.8305 87.1353Z" fill="#123041"/>
<path d="M94.1604 82.8537C94.6306 82.6328 95.0937 82.5322 95.5494 82.552C96.0095 82.5697 96.4217 82.7003 96.7859 82.9438C97.1544 83.1853 97.44 83.5216 97.6424 83.9527C97.8449 84.3837 97.9225 84.8204 97.875 85.2625C97.8299 85.6983 97.6673 86.0989 97.3872 86.4644C97.1114 86.8278 96.7384 87.1199 96.2681 87.3408L94.7528 88.0526L92.645 83.5654L94.1604 82.8537ZM96.0503 86.8771C96.4204 86.7032 96.7134 86.4726 96.9292 86.1852C97.1493 85.8958 97.2765 85.5782 97.3108 85.2326C97.3495 84.8849 97.288 84.539 97.1265 84.195C96.9649 83.851 96.739 83.5851 96.4487 83.3972C96.1608 83.2029 95.8352 83.0981 95.4718 83.0827C95.1129 83.0653 94.7483 83.1435 94.3782 83.3174L93.3723 83.7899L95.0444 87.3496L96.0503 86.8771Z" fill="#123041"/>
<path d="M100.772 81.8559C101.259 81.766 101.654 81.8375 101.956 82.0704C102.262 82.2977 102.457 82.6408 102.542 83.0997L102.954 85.3351L102.422 85.4333L102.316 84.8585C102.227 85.0902 102.072 85.2874 101.853 85.4502C101.637 85.6074 101.402 85.7095 101.146 85.7566C100.753 85.8291 100.412 85.7819 100.122 85.6153C99.8321 85.4486 99.6543 85.1879 99.5889 84.8331C99.5453 84.5965 99.5703 84.3742 99.664 84.1661C99.7616 83.9525 99.91 83.7759 100.109 83.6364C100.313 83.4913 100.544 83.3948 100.804 83.3468C101.173 83.2787 101.583 83.274 102.035 83.3327L102.01 83.1979C101.955 82.8998 101.833 82.663 101.644 82.4875C101.454 82.3073 101.179 82.2503 100.82 82.3166C100.654 82.3471 100.49 82.4093 100.326 82.5031C100.166 82.5913 99.9941 82.7062 99.8098 82.8478L99.5171 82.4541C99.9466 82.1303 100.365 81.9309 100.772 81.8559ZM101.152 85.2713C101.417 85.2224 101.653 85.1104 101.86 84.9351C102.072 84.7543 102.188 84.5371 102.21 84.2836L102.107 83.723C101.729 83.69 101.351 83.7084 100.972 83.7782C100.693 83.8296 100.467 83.9447 100.295 84.1232C100.127 84.3009 100.063 84.4986 100.103 84.7162C100.144 84.9386 100.262 85.1003 100.457 85.2014C100.655 85.2968 100.887 85.3201 101.152 85.2713Z" fill="#123041"/>
<path d="M104.026 81.4864L104.632 81.5113L105.745 84.6555L107.091 81.6124L107.696 81.6373L105.978 85.3006L105.459 85.2793L104.026 81.4864Z" fill="#123041"/>
<path d="M109.449 81.9446L109.98 82.0498L109.255 85.7094L108.724 85.6042L109.449 81.9446ZM109.85 81.3325C109.751 81.3129 109.673 81.2607 109.616 81.1758C109.564 81.092 109.548 81.0028 109.566 80.9085C109.585 80.8141 109.634 80.7404 109.713 80.6874C109.798 80.6307 109.89 80.6121 109.989 80.6317C110.084 80.6505 110.157 80.7017 110.209 80.7856C110.266 80.8657 110.286 80.953 110.267 81.0473C110.249 81.1417 110.197 81.2173 110.112 81.274C110.032 81.3317 109.945 81.3512 109.85 81.3325Z" fill="#123041"/>
<path d="M111.524 86.4281C111.274 86.342 111.035 86.2089 110.807 86.0287C110.583 85.8501 110.396 85.6407 110.244 85.4004L110.64 85.1166C110.943 85.5516 111.29 85.8363 111.681 85.9709C111.913 86.0506 112.117 86.0647 112.292 86.0132C112.472 85.9631 112.591 85.854 112.649 85.6856C112.69 85.5674 112.685 85.4562 112.634 85.3523C112.585 85.2438 112.509 85.1465 112.406 85.0603C112.308 84.9757 112.167 84.8687 111.983 84.7391C111.593 84.4676 111.334 84.2286 111.207 84.022C111.081 83.8109 111.061 83.5802 111.147 83.33C111.255 83.0161 111.457 82.8058 111.753 82.699C112.051 82.5878 112.38 82.5939 112.739 82.7175C112.953 82.791 113.156 82.9017 113.35 83.0496C113.545 83.193 113.716 83.3589 113.865 83.5474L113.483 83.8588C113.21 83.5154 112.909 83.2874 112.582 83.1747C112.372 83.1027 112.184 83.0888 112.016 83.1328C111.848 83.1769 111.736 83.2808 111.68 83.4446C111.646 83.5447 111.647 83.6367 111.684 83.7208C111.721 83.8048 111.791 83.8922 111.892 83.9829C111.993 84.0736 112.157 84.2037 112.383 84.3732C112.607 84.5366 112.783 84.6813 112.913 84.8073C113.043 84.9332 113.137 85.0802 113.196 85.2481C113.257 85.4115 113.252 85.5978 113.18 85.8071C113.07 86.1255 112.859 86.3403 112.546 86.4514C112.238 86.5641 111.897 86.5564 111.524 86.4281Z" fill="#123041"/>
<path d="M118.567 87.9007C119.023 87.8805 119.388 87.8216 119.661 87.724C119.94 87.6256 120.157 87.478 120.312 87.2815C120.431 87.1302 120.497 86.9682 120.511 86.7952C120.527 86.6185 120.497 86.4509 120.42 86.2922C120.343 86.1335 120.234 85.9992 120.094 85.8891C119.879 85.7195 119.644 85.6207 119.391 85.5927C119.141 85.5676 118.869 85.595 118.573 85.6748L118.462 85.1741C119.207 84.9518 119.86 85.0622 120.424 85.5055C120.651 85.684 120.821 85.8949 120.936 86.1381C121.051 86.3814 121.094 86.6331 121.067 86.8933C121.044 87.1565 120.943 87.4015 120.764 87.6283C120.559 87.8892 120.292 88.0803 119.964 88.2016C119.643 88.3222 119.206 88.3948 118.654 88.4196L116.937 88.501L118.916 90.0584L118.586 90.478L115.898 88.3628L116.188 87.9942L118.567 87.9007Z" fill="#123041"/>
<path d="M120.839 93.1922C120.602 92.8715 120.477 92.521 120.464 92.1409C120.456 91.7579 120.555 91.3789 120.762 91.0038C120.972 90.6326 121.276 90.2994 121.674 90.0042C122.072 89.7091 122.477 89.5164 122.889 89.4263C123.308 89.3372 123.698 89.3538 124.058 89.476C124.422 89.5954 124.723 89.8154 124.961 90.1361C125.196 90.453 125.317 90.803 125.326 91.1859C125.338 91.5661 125.24 91.9418 125.03 92.313C124.827 92.6852 124.526 93.0189 124.128 93.314C123.73 93.6092 123.321 93.8013 122.902 93.8904C122.486 93.9834 122.096 93.9702 121.732 93.8509C121.375 93.7325 121.077 93.5129 120.839 93.1922ZM121.257 92.8827C121.429 93.1146 121.652 93.2697 121.925 93.3482C122.203 93.4238 122.503 93.4201 122.825 93.3372C123.15 93.2514 123.472 93.0911 123.788 92.8561C124.105 92.6211 124.35 92.3617 124.523 92.0778C124.7 91.7911 124.79 91.5054 124.795 91.2206C124.799 90.9358 124.715 90.6775 124.543 90.4456C124.371 90.2138 124.149 90.0586 123.875 89.9801C123.601 89.9017 123.3 89.9034 122.971 89.9853C122.649 90.0682 122.33 90.2272 122.013 90.4621C121.696 90.6971 121.45 90.958 121.273 91.2447C121.103 91.5324 121.014 91.8201 121.006 92.1078C121.001 92.3925 121.085 92.6509 121.257 92.8827Z" fill="#123041"/>
<path d="M125.374 97.0691C125.777 97.285 126.121 97.4206 126.405 97.476C126.695 97.5341 126.957 97.5182 127.191 97.4282C127.37 97.359 127.51 97.2535 127.61 97.1118C127.715 96.9684 127.774 96.8088 127.789 96.6329C127.804 96.4571 127.779 96.2862 127.715 96.1201C127.616 95.8642 127.465 95.6595 127.262 95.506C127.06 95.357 126.812 95.2413 126.517 95.159L126.677 94.6718C127.431 94.8608 127.936 95.2897 128.194 95.9585C128.298 96.2279 128.337 96.4964 128.311 96.7641C128.286 97.0318 128.195 97.2705 128.038 97.4803C127.884 97.6946 127.672 97.8537 127.403 97.9575C127.093 98.0769 126.766 98.105 126.422 98.0418C126.084 97.9812 125.672 97.8206 125.184 97.5599L123.667 96.753L124.573 99.1028L124.075 99.2949L122.844 96.1035L123.282 95.9347L125.374 97.0691Z" fill="#123041"/>
<path d="M124.562 102.369C124.519 102.006 124.55 101.67 124.654 101.363C124.759 101.06 124.921 100.786 125.139 100.543L125.591 100.86C125.181 101.335 125.006 101.825 125.066 102.332C125.092 102.556 125.164 102.751 125.28 102.917C125.396 103.082 125.544 103.203 125.722 103.279C125.901 103.36 126.093 103.388 126.299 103.364C126.614 103.327 126.857 103.187 127.027 102.944C127.197 102.701 127.262 102.408 127.221 102.064C127.175 101.672 127.006 101.321 126.713 101.012L126.865 100.58L129.404 100.354L129.746 103.264L129.215 103.327L128.937 100.961L127.276 101.106C127.534 101.405 127.685 101.743 127.729 102.12C127.765 102.422 127.735 102.701 127.639 102.959C127.549 103.222 127.395 103.439 127.178 103.609C126.966 103.784 126.702 103.89 126.387 103.928C126.067 103.965 125.773 103.922 125.507 103.798C125.246 103.679 125.033 103.493 124.868 103.241C124.703 102.994 124.601 102.703 124.562 102.369Z" fill="#123041"/>
<circle cx="105.055" cy="104.887" r="3.69203" transform="rotate(180 105.055 104.887)" fill="white"/>
<defs>
<clipPath id="clip0_81_448">
<rect width="90.6562" height="62.452" fill="white" transform="translate(150.4 55.2359) rotate(-180)"/>
</clipPath>
<clipPath id="clip1_81_448">
<rect width="87.4904" height="70.2226" fill="white" transform="translate(61.8315 61.8415) rotate(90)"/>
</clipPath>
<clipPath id="clip2_81_448">
<rect width="80.8711" height="58.9985" fill="white" transform="translate(157.331 145.314) rotate(-90)"/>
</clipPath>
<clipPath id="clip3_81_448">
<rect width="93.822" height="86.0514" fill="white" transform="translate(58.1494 134.675)"/>
</clipPath>
</defs>
</svg>
